<svg width="22" height="22" viewBox="0 0 22 22" fill="none" xmlns="http://www.w3.org/2000/svg">
    <path d="M18.8571 1H3.14286C1.95939 1 1 1.95939 1 3.14286V18.8571C1 20.0406 1.95939 21 3.14286 21H18.8571C20.0406 21 21 20.0406 21 18.8571V3.14286C21 1.95939 20.0406 1 18.8571 1Z" fill="white" stroke="#0C6CF2" stroke-width="2" stroke-linecap="round" stroke-linejoin="round"/>
    <path d="M18.8571 4.5714L21 3.85712V18C21 19.6568 19.6569 21 18 21H4C2.34315 21 1 19.6568 1 18V17.4285L3.14286 12.4285L6 13.1428L11 7.42854L16 6.71426L18.8571 4.5714Z" fill="#0C6CF2" fill-opacity="0.36" stroke="#0C6CF2" stroke-width="2" stroke-linecap="round" stroke-linejoin="round"/>
    <path d="M11 11V21" stroke="#0C6CF2" stroke-width="2" stroke-linecap="round"/>
    <path d="M6 15.2857V21" stroke="#0C6CF2" stroke-width="2" stroke-linecap="round"/>
    <path d="M11 1V3.85714" stroke="#0C6CF2" stroke-width="2" stroke-linecap="round"/>
    <path d="M16 9.57141V21" stroke="#0C6CF2" stroke-width="2" stroke-linecap="round"/>
    <path d="M11 8.85714C11.789 8.85714 12.4286 8.21755 12.4286 7.42857C12.4286 6.63959 11.789 6 11 6C10.211 6 9.57141 6.63959 9.57141 7.42857C9.57141 8.21755 10.211 8.85714 11 8.85714Z" fill="white" stroke="#0C6CF2" stroke-width="2"/>
</svg>
