<svg xmlns="http://www.w3.org/2000/svg" viewBox="0 0 20 20" fill="none">
    <path d="M3.68421 11.0526C3.10526 11.0526 2.63158 11.5263 2.63158 12.1053C2.63158 12.6842 3.10526 13.1579 3.68421 13.1579C4.26316 13.1579 4.73684 12.6842 4.73684 12.1053C4.73684 11.5263 4.26316 11.0526 3.68421 11.0526ZM3.68421 15.2632C3.10526 15.2632 2.63158 15.7368 2.63158 16.3158C2.63158 16.8947 3.10526 17.3684 3.68421 17.3684C4.26316 17.3684 4.73684 16.8947 4.73684 16.3158C4.73684 15.7368 4.26316 15.2632 3.68421 15.2632ZM3.68421 6.84211C3.10526 6.84211 2.63158 7.31579 2.63158 7.89474C2.63158 8.47368 3.10526 8.94737 3.68421 8.94737C4.26316 8.94737 4.73684 8.47368 4.73684 7.89474C4.73684 7.31579 4.26316 6.84211 3.68421 6.84211ZM0.526316 7.36842C0.231579 7.36842 0 7.6 0 7.89474C0 8.18947 0.231579 8.42105 0.526316 8.42105C0.821053 8.42105 1.05263 8.18947 1.05263 7.89474C1.05263 7.6 0.821053 7.36842 0.526316 7.36842ZM3.68421 2.63158C3.10526 2.63158 2.63158 3.10526 2.63158 3.68421C2.63158 4.26316 3.10526 4.73684 3.68421 4.73684C4.26316 4.73684 4.73684 4.26316 4.73684 3.68421C4.73684 3.10526 4.26316 2.63158 3.68421 2.63158ZM19.4737 8.42105C19.7684 8.42105 20 8.18947 20 7.89474C20 7.6 19.7684 7.36842 19.4737 7.36842C19.1789 7.36842 18.9474 7.6 18.9474 7.89474C18.9474 8.18947 19.1789 8.42105 19.4737 8.42105ZM12.1053 4.73684C12.6842 4.73684 13.1579 4.26316 13.1579 3.68421C13.1579 3.10526 12.6842 2.63158 12.1053 2.63158C11.5263 2.63158 11.0526 3.10526 11.0526 3.68421C11.0526 4.26316 11.5263 4.73684 12.1053 4.73684ZM12.1053 1.05263C12.4 1.05263 12.6316 0.821053 12.6316 0.526316C12.6316 0.231579 12.4 0 12.1053 0C11.8105 0 11.5789 0.231579 11.5789 0.526316C11.5789 0.821053 11.8105 1.05263 12.1053 1.05263ZM0.526316 11.5789C0.231579 11.5789 0 11.8105 0 12.1053C0 12.4 0.231579 12.6316 0.526316 12.6316C0.821053 12.6316 1.05263 12.4 1.05263 12.1053C1.05263 11.8105 0.821053 11.5789 0.526316 11.5789ZM7.89474 18.9474C7.6 18.9474 7.36842 19.1789 7.36842 19.4737C7.36842 19.7684 7.6 20 7.89474 20C8.18947 20 8.42105 19.7684 8.42105 19.4737C8.42105 19.1789 8.18947 18.9474 7.89474 18.9474ZM7.89474 1.05263C8.18947 1.05263 8.42105 0.821053 8.42105 0.526316C8.42105 0.231579 8.18947 0 7.89474 0C7.6 0 7.36842 0.231579 7.36842 0.526316C7.36842 0.821053 7.6 1.05263 7.89474 1.05263ZM7.89474 4.73684C8.47368 4.73684 8.94737 4.26316 8.94737 3.68421C8.94737 3.10526 8.47368 2.63158 7.89474 2.63158C7.31579 2.63158 6.84211 3.10526 6.84211 3.68421C6.84211 4.26316 7.31579 4.73684 7.89474 4.73684ZM7.89474 10.5263C7.02105 10.5263 6.31579 11.2316 6.31579 12.1053C6.31579 12.9789 7.02105 13.6842 7.89474 13.6842C8.76842 13.6842 9.47368 12.9789 9.47368 12.1053C9.47368 11.2316 8.76842 10.5263 7.89474 10.5263ZM16.3158 11.0526C15.7368 11.0526 15.2632 11.5263 15.2632 12.1053C15.2632 12.6842 15.7368 13.1579 16.3158 13.1579C16.8947 13.1579 17.3684 12.6842 17.3684 12.1053C17.3684 11.5263 16.8947 11.0526 16.3158 11.0526ZM16.3158 15.2632C15.7368 15.2632 15.2632 15.7368 15.2632 16.3158C15.2632 16.8947 15.7368 17.3684 16.3158 17.3684C16.8947 17.3684 17.3684 16.8947 17.3684 16.3158C17.3684 15.7368 16.8947 15.2632 16.3158 15.2632ZM16.3158 6.84211C15.7368 6.84211 15.2632 7.31579 15.2632 7.89474C15.2632 8.47368 15.7368 8.94737 16.3158 8.94737C16.8947 8.94737 17.3684 8.47368 17.3684 7.89474C17.3684 7.31579 16.8947 6.84211 16.3158 6.84211ZM16.3158 2.63158C15.7368 2.63158 15.2632 3.10526 15.2632 3.68421C15.2632 4.26316 15.7368 4.73684 16.3158 4.73684C16.8947 4.73684 17.3684 4.26316 17.3684 3.68421C17.3684 3.10526 16.8947 2.63158 16.3158 2.63158ZM19.4737 11.5789C19.1789 11.5789 18.9474 11.8105 18.9474 12.1053C18.9474 12.4 19.1789 12.6316 19.4737 12.6316C19.7684 12.6316 20 12.4 20 12.1053C20 11.8105 19.7684 11.5789 19.4737 11.5789ZM12.1053 15.2632C11.5263 15.2632 11.0526 15.7368 11.0526 16.3158C11.0526 16.8947 11.5263 17.3684 12.1053 17.3684C12.6842 17.3684 13.1579 16.8947 13.1579 16.3158C13.1579 15.7368 12.6842 15.2632 12.1053 15.2632ZM12.1053 18.9474C11.8105 18.9474 11.5789 19.1789 11.5789 19.4737C11.5789 19.7684 11.8105 20 12.1053 20C12.4 20 12.6316 19.7684 12.6316 19.4737C12.6316 19.1789 12.4 18.9474 12.1053 18.9474ZM7.89474 6.31579C7.02105 6.31579 6.31579 7.02105 6.31579 7.89474C6.31579 8.76842 7.02105 9.47368 7.89474 9.47368C8.76842 9.47368 9.47368 8.76842 9.47368 7.89474C9.47368 7.02105 8.76842 6.31579 7.89474 6.31579ZM7.89474 15.2632C7.31579 15.2632 6.84211 15.7368 6.84211 16.3158C6.84211 16.8947 7.31579 17.3684 7.89474 17.3684C8.47368 17.3684 8.94737 16.8947 8.94737 16.3158C8.94737 15.7368 8.47368 15.2632 7.89474 15.2632ZM12.1053 10.5263C11.2316 10.5263 10.5263 11.2316 10.5263 12.1053C10.5263 12.9789 11.2316 13.6842 12.1053 13.6842C12.9789 13.6842 13.6842 12.9789 13.6842 12.1053C13.6842 11.2316 12.9789 10.5263 12.1053 10.5263ZM12.1053 6.31579C11.2316 6.31579 10.5263 7.02105 10.5263 7.89474C10.5263 8.76842 11.2316 9.47368 12.1053 9.47368C12.9789 9.47368 13.6842 8.76842 13.6842 7.89474C13.6842 7.02105 12.9789 6.31579 12.1053 6.31579Z" fill="black"/>
</svg>