<svg xmlns="http://www.w3.org/2000/svg" viewBox="0 0 20 20" fill="none">
    <rect x="0.5" y="0.5" width="19" height="19" rx="4.5" stroke="black"/>
    <path d="M6.90326 14.0642C6.64045 13.8651 6.58882 13.4906 6.78794 13.2278C6.98705 12.965 7.36152 12.9134 7.62433 13.1125C8.5222 13.7927 9.66723 14.2226 10.697 14.2226C11.7804 14.2226 12.9719 13.7574 13.8837 13.0234C14.1406 12.8166 14.5164 12.8572 14.7232 13.114C14.9299 13.3709 14.8893 13.7467 14.6325 13.9535C13.5183 14.8504 12.0681 15.4166 10.697 15.4166C9.39083 15.4166 7.99832 14.8939 6.90326 14.0642Z" fill="black"/>
    <rect x="6.66675" y="5.83334" width="1.66667" height="4.16667" rx="0.833333" fill="black"/>
    <rect x="13.3333" y="5.83334" width="1.66667" height="4.16667" rx="0.833333" fill="black"/>
</svg>