<svg viewBox="0 0 24 24" fill="none" xmlns="http://www.w3.org/2000/svg">
    <path d="M0.75 9.2C0.75 8.50964 1.30964 7.95 2 7.95H4C4.69036 7.95 5.25 8.50964 5.25 9.2V22C5.25 22.6904 4.69036 23.25 4 23.25H2C1.30964 23.25 0.75 22.6904 0.75 22V9.2ZM9.95 2C9.95 1.30964 10.5096 0.75 11.2 0.75H13C13.6904 0.75 14.25 1.30964 14.25 2V22C14.25 22.6904 13.6904 23.25 13 23.25H11.2C10.5096 23.25 9.95 22.6904 9.95 22V2ZM18.75 15.7143C18.75 15.0239 19.3096 14.4643 20 14.4643H22C22.6904 14.4643 23.25 15.0239 23.25 15.7143V22C23.25 22.6904 22.6904 23.25 22 23.25H20C19.3096 23.25 18.75 22.6904 18.75 22V15.7143Z" stroke="black" stroke-width="1.5"/>
</svg>
