<svg fill="none" height="17" viewBox="0 0 154 17" width="154" xmlns="http://www.w3.org/2000/svg"><g fill="#fff"><path d="m0 15.9995h6.21449c3.26704 0 5.00711-1.7046 5.00711-4.0199 0-2.15201-1.5412-3.45172-3.19603-3.52985v-.14204c1.51278-.34091 2.62783-1.41336 2.62783-3.125 0-2.1804-1.61931-3.7287-4.82954-3.7287h-5.82386zm3.07528-2.5142v-3.86367h2.57813c1.47727 0 2.39347.85227 2.39347 2.05257 0 1.0937-.74574 1.8111-2.46449 1.8111zm0-5.94464v-3.60085h2.33665c1.36364 0 2.13779.70312 2.13779 1.75426 0 1.15057-.9375 1.84659-2.19461 1.84659z"/><path d="m16.1914 1.45401h-3.0256v14.54549h3.0256z"/><path d="m23.544 16.2125c3.3097 0 5.3694-2.2656 5.3694-5.625 0-3.38065-2.0597-5.63917-5.3694-5.63917-3.3096 0-5.3693 2.25852-5.3693 5.63917 0 3.3594 2.0597 5.625 5.3693 5.625zm.0142-2.3437c-1.527 0-2.3082-1.3992-2.3082-3.3026 0-1.90338.7812-3.30963 2.3082-3.30963 1.4986 0 2.2799 1.40625 2.2799 3.30963 0 1.9034-.7813 3.3026-2.2799 3.3026z"/><path d="m35.8097 16.2125c2.9048 0 4.7301-1.7045 4.8721-4.2116h-2.8551c-.1776 1.1648-.9446 1.8182-1.9815 1.8182-1.4134 0-2.3296-1.1861-2.3296-3.2742 0-2.05964.9233-3.23861 2.3296-3.23861 1.1079 0 1.8181.73153 1.9815 1.81818h2.8551c-.1278-2.52131-2.0383-4.17614-4.8863-4.17614-3.3097 0-5.3552 2.29404-5.3552 5.63917 0 3.3168 2.01 5.625 5.3694 5.625z"/><path d="m42.619 15.9995h3.0255v-3.4659l.8168-.9304 2.9758 4.3963h3.5441l-4.2543-6.18611 4.0483-4.72301h-3.473l-3.4943 4.14062h-.1634v-7.77699h-3.0255z"/><path d="m58.7393 16.2125c2.9049 0 4.7302-1.7045 4.8722-4.2116h-2.8551c-.1776 1.1648-.9446 1.8182-1.9815 1.8182-1.4134 0-2.3296-1.1861-2.3296-3.2742 0-2.05964.9233-3.23861 2.3296-3.23861 1.1079 0 1.8181.73153 1.9815 1.81818h2.8551c-.1278-2.52131-2.0383-4.17614-4.8864-4.17614-3.3096 0-5.3551 2.29404-5.3551 5.63917 0 3.3168 2.01 5.625 5.3693 5.625z"/><path d="m68.5742 9.69265c.0071-1.40625.8665-2.23011 2.1023-2.23011 1.2287 0 1.9531.78835 1.946 2.13068v6.40628h3.0256v-6.94606c.0071-2.55681-1.4986-4.10511-3.7713-4.10511-1.6549 0-2.7628.78125-3.26 2.06676h-.1278v-5.56108h-2.9403v14.54549h3.0255z"/><path d="m81.1399 16.2054c1.6122 0 2.6563-.7031 3.1889-1.7187h.0853v1.5128h2.8693v-7.35799c0-2.59943-2.2017-3.69318-4.6307-3.69318-2.6136 0-4.3324 1.25-4.7514 3.23864l2.7983.22727c.2059-.72443.8522-1.2571 1.9389-1.2571 1.0298 0 1.6193.51846 1.6193 1.41335v.04261c0 .70313-.7457.79546-2.642.98012-2.1591.19886-4.098.92328-4.098 3.35938 0 2.1591 1.5412 3.2528 3.6221 3.2528zm.8665-2.088c-.9304 0-1.598-.4333-1.598-1.2642 0-.8523.7031-1.2713 1.7684-1.4205.6606-.0923 1.7401-.2486 2.1023-.4901v1.1577c0 1.1435-.9446 2.0171-2.2727 2.0171z"/><path d="m89.6307 15.9995h3.0255v-10.90912h-3.0255zm1.5199-12.31537c.902 0 1.6406-.68892 1.6406-1.53409 0-.83807-.7386-1.526993-1.6406-1.526993-.8949 0-1.6336.688923-1.6336 1.526993 0 .84517.7387 1.53409 1.6336 1.53409z"/><path d="m98.1055 9.69265c.0071-1.40625.8451-2.23011 2.0665-2.23011 1.215 0 1.946.79545 1.939 2.13068v6.40628h3.026v-6.94606c0-2.54261-1.492-4.10511-3.764-4.10511-1.6198 0-2.7917.79546-3.2817 2.06676h-.1279v-1.92471h-2.8835v10.90912h3.0256z"/></g><path d="m109.712 16.184c.909 0 1.697-.7599 1.704-1.7045-.007-.9304-.795-1.6903-1.704-1.6903-.938 0-1.712.7599-1.705 1.6903-.007.9446.767 1.7045 1.705 1.7045z" fill="#b1b8c7"/><path d="m118.829 16.2124c2.905 0 4.73-1.7045 4.872-4.2116h-2.855c-.177 1.1648-.944 1.8182-1.981 1.8182-1.414 0-2.33-1.1861-2.33-3.2742 0-2.05963.923-3.2386 2.33-3.2386 1.108 0 1.818.73153 1.981 1.81818h2.855c-.127-2.52131-2.038-4.17614-4.886-4.17614-3.31 0-5.355 2.29404-5.355 5.63916 0 3.3168 2.01 5.625 5.369 5.625z" fill="#b1b8c7"/><path d="m130.567 16.2124c3.31 0 5.37-2.2656 5.37-5.625 0-3.38064-2.06-5.63916-5.37-5.63916-3.309 0-5.369 2.25852-5.369 5.63916 0 3.3594 2.06 5.625 5.369 5.625zm.015-2.3437c-1.527 0-2.309-1.3992-2.309-3.3026 0-1.90337.782-3.30962 2.309-3.30962 1.498 0 2.28 1.40625 2.28 3.30962 0 1.9034-.782 3.3026-2.28 3.3026z" fill="#b1b8c7"/><path d="m137.904 15.9994h3.026v-6.54832c0-1.20738.767-2.00994 1.775-2.00994.995 0 1.662.68182 1.662 1.75426v6.804h2.933v-6.66195c0-1.12927.647-1.89631 1.748-1.89631.966 0 1.69.60369 1.69 1.81818v6.74008h3.018v-7.33667c0-2.36506-1.406-3.71449-3.437-3.71449-1.598 0-2.841.81676-3.288 2.06676h-.114c-.348-1.2642-1.463-2.06676-2.962-2.06676-1.47 0-2.585.78125-3.039 2.06676h-.128v-1.92471h-2.884z" fill="#b1b8c7"/></svg>