<svg xmlns="http://www.w3.org/2000/svg" viewBox="0 0 20 22" fill="none">
    <path d="M6.16667 20.8561C6.16667 21.2135 5.87855 21.5 5.52707 21.5H1.1396C0.788117 21.5 0.5 21.2135 0.5 20.8561V8.62047C0.5 8.06806 0.754111 7.54719 1.18759 7.20878L9.60804 0.635072C9.83873 0.454976 10.1613 0.454976 10.392 0.635072L18.8124 7.20878C19.2459 7.54719 19.5 8.06806 19.5 8.62047V20.8561C19.5 21.2135 19.2119 21.5 18.8604 21.5H14.4729C14.1214 21.5 13.8333 21.2135 13.8333 20.8561V15.337C13.8333 14.4309 13.101 13.6932 12.1937 13.6932H7.80627C6.89898 13.6932 6.16667 14.4309 6.16667 15.337V20.8561Z" stroke="black"/>
</svg>