<svg width="20" height="20" viewBox="0 0 20 20" fill="none" xmlns="http://www.w3.org/2000/svg">
    <path d="M1.66748 13.3333V4.16667C1.66748 3.24619 2.41367 2.5 3.33414 2.5H16.6675C17.5879 2.5 18.3341 3.24619 18.3341 4.16667V13.3333C18.3341 14.2538 17.5879 15 16.6675 15H3.33415C2.41367 15 1.66748 14.2538 1.66748 13.3333Z" fill="white"/>
    <path d="M1.66748 13.3333V4.16667C1.66748 3.24619 2.41367 2.5 3.33414 2.5H16.6675C17.5879 2.5 18.3341 3.24619 18.3341 4.16667V13.3333C18.3341 14.2538 17.5879 15 16.6675 15H3.33415C2.41367 15 1.66748 14.2538 1.66748 13.3333Z" fill="#5322E5" fill-opacity="0.36"/>
    <path d="M1.66748 13.3333V4.16667C1.66748 3.24619 2.41367 2.5 3.33414 2.5H16.6675C17.5879 2.5 18.3341 3.24619 18.3341 4.16667V13.3333C18.3341 14.2538 17.5879 15 16.6675 15H3.33415C2.41367 15 1.66748 14.2538 1.66748 13.3333V13.3333Z" stroke="#7349F2" stroke-width="2" stroke-linecap="round" stroke-linejoin="round"/>
    <path d="M1.66748 13.3334V8.33344H18.3341V13.3334C18.3341 14.2539 17.5879 15.0001 16.6675 15.0001H3.33415C2.41367 15.0001 1.66748 14.2539 1.66748 13.3334Z" fill="white" stroke="#7349F2" stroke-width="2" stroke-linecap="round" stroke-linejoin="round"/>
    <path d="M1.66748 14.0991V4.2343C1.66748 3.3811 2.50335 2.77864 3.31276 3.04844L13.0279 6.28683C13.7084 6.51364 14.1675 7.15058 14.1675 7.86795V16.8543C14.1675 17.9919 13.053 18.7952 11.9737 18.4355L2.52219 15.2849C2.01177 15.1148 1.66748 14.6371 1.66748 14.0991Z" fill="white"/>
    <path d="M1.66748 14.0991V4.2343C1.66748 3.3811 2.50335 2.77864 3.31276 3.04844L13.0279 6.28683C13.7084 6.51364 14.1675 7.15058 14.1675 7.86795V16.8543C14.1675 17.9919 13.053 18.7952 11.9737 18.4355L2.52219 15.2849C2.01177 15.1148 1.66748 14.6371 1.66748 14.0991Z" fill="#5322E5" fill-opacity="0.36"/>
    <path d="M1.66748 14.0991V4.2343C1.66748 3.3811 2.50335 2.77864 3.31276 3.04844L13.0279 6.28683C13.7084 6.51364 14.1675 7.15058 14.1675 7.86795V16.8543C14.1675 17.9919 13.053 18.7952 11.9737 18.4355L2.52219 15.2849C2.01177 15.1148 1.66748 14.6371 1.66748 14.0991V14.0991Z" stroke="#7349F2" stroke-width="2" stroke-linecap="round" stroke-linejoin="round"/>
    <path d="M10.4175 13.3334C11.1078 13.3334 11.6675 12.7738 11.6675 12.0834C11.6675 11.3931 11.1078 10.8334 10.4175 10.8334C9.72712 10.8334 9.16748 11.3931 9.16748 12.0834C9.16748 12.7738 9.72712 13.3334 10.4175 13.3334Z" fill="white" stroke="#7349F2" stroke-width="2"/>
</svg>
